<svg aria-hidden="true" style="position: absolute; width: 0; height: 0; overflow: hidden;" version="1.1" xmlns="http://www.w3.org/2000/svg" xmlns:xlink="http://www.w3.org/1999/xlink">
<defs>
<symbol id="icon-lupa" viewBox="0 0 32 32">
<path fill="none" stroke="#fff" style="stroke: var(--color1, #fff)" stroke-linejoin="round" stroke-linecap="round" stroke-miterlimit="4" stroke-width="2.1895" d="M14.409 27.134c7.028 0 12.725-5.697 12.725-12.725s-5.697-12.725-12.725-12.725c-7.028 0-12.725 5.697-12.725 12.725s5.697 12.725 12.725 12.725z"></path>
<path fill="none" stroke="#fff" style="stroke: var(--color1, #fff)" stroke-linejoin="round" stroke-linecap="round" stroke-miterlimit="4" stroke-width="2.1895" d="M30.316 30.316l-6.919-6.919"></path>
</symbol>
<symbol id="icon-mail" viewBox="0 0 41 32">
<path fill="none" stroke="#fff" style="stroke: var(--color1, #fff)" stroke-linejoin="round" stroke-linecap="round" stroke-miterlimit="4" stroke-width="2.4471" d="M5.647 1.882h30.118c2.071 0 3.765 1.588 3.765 3.529v21.176c0 1.941-1.694 3.529-3.765 3.529h-30.118c-2.071 0-3.765-1.588-3.765-3.529v-21.176c0-1.941 1.694-3.529 3.765-3.529z"></path>
<path fill="none" stroke="#fff" style="stroke: var(--color1, #fff)" stroke-linejoin="round" stroke-linecap="round" stroke-miterlimit="4" stroke-width="2.4471" d="M39.529 5.412l-18.824 12.353-18.824-12.353"></path>
</symbol>
<symbol id="icon-wall" viewBox="0 0 32 32">
<path fill="#fff" style="fill: var(--color1, #fff)" d="M15.957 2.667c0.446 0.089 0.907 0.15 1.345 0.273 2.519 0.729 4.115 2.508 4.285 4.75 0 0.041 0.016 0.082 0.024 0.164 0.113 0 0.227 0 0.332 0 1.069 0 2.147 0 3.216 0 0.664 0 0.988 0.245 1.053 0.797 0.219 2.045 0.429 4.096 0.64 6.141 0.259 2.433 0.518 4.873 0.778 7.306 0.13 1.193 0.3 2.385 0.365 3.578 0.065 1.227-0.624 2.167-1.782 2.869-0.915 0.552-1.961 0.777-3.087 0.777-4.051-0.007-8.109 0-12.16 0-1.272 0-2.536 0.034-3.808-0.014-1.604-0.055-2.925-0.613-3.856-1.745-0.64-0.777-0.705-1.649-0.591-2.563 0.235-1.888 0.413-3.783 0.608-5.677 0.194-1.861 0.397-3.714 0.591-5.575 0.178-1.649 0.348-3.299 0.518-4.948 0.008-0.075 0.008-0.157 0.024-0.232 0.081-0.477 0.397-0.716 0.98-0.722 1.086-0.007 2.163 0 3.249 0 0.122 0 0.243 0 0.373 0 0.049-0.811 0.235-1.561 0.664-2.256 1.021-1.615 2.6-2.569 4.739-2.869 0.089-0.014 0.178-0.034 0.267-0.055 0.405 0 0.818 0 1.231 0zM9.080 9.346c-0.996 0-1.952 0-2.925 0-0.008 0.055-0.024 0.095-0.024 0.143-0.243 2.331-0.494 4.668-0.737 6.999-0.316 3.040-0.632 6.086-0.956 9.126-0.057 0.559 0.162 1.022 0.599 1.424 0.681 0.613 1.555 0.825 2.519 0.825 5.185 0.007 10.378 0.007 15.562 0 0.583 0 1.142-0.082 1.677-0.3 0.851-0.348 1.596-1.091 1.45-2.045-0.089-0.572-0.13-1.159-0.186-1.738-0.211-2.045-0.429-4.096-0.64-6.141-0.243-2.304-0.486-4.614-0.729-6.918-0.049-0.457-0.105-0.913-0.154-1.363-0.988 0-1.952 0-2.933 0 0 0.095 0 0.177 0 0.252 0 0.661 0.008 1.322-0.008 1.976-0.008 0.416-0.397 0.722-0.875 0.716-0.462-0.007-0.834-0.307-0.859-0.709-0.008-0.136 0-0.279 0-0.416 0-0.607 0-1.213 0-1.82-3.030 0-6.019 0-9.033 0 0 0.068 0 0.123 0 0.17 0 0.675 0.008 1.356 0 2.031-0.008 0.436-0.389 0.75-0.875 0.743-0.478 0-0.843-0.313-0.859-0.729-0.008-0.13 0-0.259 0-0.388-0.016-0.613-0.016-1.22-0.016-1.84zM19.854 7.84c-0.113-1.424-0.851-2.515-2.309-3.203-1.58-0.743-3.176-0.688-4.691 0.143-1.288 0.709-1.944 1.752-2.025 3.060 3.022 0 6.011 0 9.025 0z"></path>
</symbol>
<symbol id="icon-map" viewBox="0 0 32 32">
<path fill="none" stroke="#fff" style="stroke: var(--color1, #fff)" stroke-linejoin="round" stroke-linecap="round" stroke-miterlimit="4" stroke-width="1.7333" d="M26.667 13.576c0 8.485-10.667 15.758-10.667 15.758s-10.667-7.273-10.667-15.758c0-2.893 1.124-5.668 3.124-7.714s4.713-3.195 7.542-3.195c2.829 0 5.542 1.149 7.543 3.195s3.124 4.821 3.124 7.714z"></path>
<path fill="none" stroke="#fff" style="stroke: var(--color1, #fff)" stroke-linejoin="round" stroke-linecap="round" stroke-miterlimit="4" stroke-width="1.7333" d="M16 17.212c1.964 0 3.555-1.628 3.555-3.636s-1.592-3.636-3.555-3.636c-1.964 0-3.556 1.628-3.556 3.636s1.592 3.636 3.556 3.636z"></path>
</symbol>
<symbol id="icon-menu" viewBox="0 0 32 32">
<path fill="none" stroke="#fff" style="stroke: var(--color1, #fff)" stroke-linejoin="miter" stroke-linecap="butt" stroke-miterlimit="4" stroke-width="1.3333" d="M10.116 6.725c0 1.873-1.518 3.391-3.391 3.391s-3.391-1.518-3.391-3.391c0-1.873 1.518-3.391 3.391-3.391s3.391 1.518 3.391 3.391z"></path>
<path fill="none" stroke="#fff" style="stroke: var(--color1, #fff)" stroke-linejoin="miter" stroke-linecap="butt" stroke-miterlimit="4" stroke-width="1.3333" d="M10.116 16c0 1.873-1.518 3.391-3.391 3.391s-3.391-1.518-3.391-3.391c0-1.873 1.518-3.391 3.391-3.391s3.391 1.518 3.391 3.391z"></path>
<path fill="none" stroke="#fff" style="stroke: var(--color1, #fff)" stroke-linejoin="miter" stroke-linecap="butt" stroke-miterlimit="4" stroke-width="1.3333" d="M10.116 25.275c0 1.873-1.518 3.391-3.391 3.391s-3.391-1.518-3.391-3.391c0-1.873 1.518-3.391 3.391-3.391s3.391 1.518 3.391 3.391z"></path>
<path fill="none" stroke="#fff" style="stroke: var(--color1, #fff)" stroke-linejoin="miter" stroke-linecap="butt" stroke-miterlimit="4" stroke-width="1.3333" d="M19.391 6.725c0 1.873-1.518 3.391-3.391 3.391s-3.391-1.518-3.391-3.391c0-1.873 1.518-3.391 3.391-3.391s3.391 1.518 3.391 3.391z"></path>
<path fill="none" stroke="#fff" style="stroke: var(--color1, #fff)" stroke-linejoin="miter" stroke-linecap="butt" stroke-miterlimit="4" stroke-width="1.3333" d="M19.391 16c0 1.873-1.518 3.391-3.391 3.391s-3.391-1.518-3.391-3.391c0-1.873 1.518-3.391 3.391-3.391s3.391 1.518 3.391 3.391z"></path>
<path fill="none" stroke="#fff" style="stroke: var(--color1, #fff)" stroke-linejoin="miter" stroke-linecap="butt" stroke-miterlimit="4" stroke-width="1.3333" d="M19.391 25.275c0 1.873-1.518 3.391-3.391 3.391s-3.391-1.518-3.391-3.391c0-1.873 1.518-3.391 3.391-3.391s3.391 1.518 3.391 3.391z"></path>
<path fill="none" stroke="#fff" style="stroke: var(--color1, #fff)" stroke-linejoin="miter" stroke-linecap="butt" stroke-miterlimit="4" stroke-width="1.3333" d="M28.667 6.725c0 1.873-1.518 3.391-3.391 3.391s-3.391-1.518-3.391-3.391c0-1.873 1.518-3.391 3.391-3.391s3.391 1.518 3.391 3.391z"></path>
<path fill="none" stroke="#fff" style="stroke: var(--color1, #fff)" stroke-linejoin="miter" stroke-linecap="butt" stroke-miterlimit="4" stroke-width="1.3333" d="M28.667 16c0 1.873-1.518 3.391-3.391 3.391s-3.391-1.518-3.391-3.391c0-1.873 1.518-3.391 3.391-3.391s3.391 1.518 3.391 3.391z"></path>
<path fill="none" stroke="#fff" style="stroke: var(--color1, #fff)" stroke-linejoin="miter" stroke-linecap="butt" stroke-miterlimit="4" stroke-width="1.3333" d="M28.667 25.275c0 1.873-1.518 3.391-3.391 3.391s-3.391-1.518-3.391-3.391c0-1.873 1.518-3.391 3.391-3.391s3.391 1.518 3.391 3.391z"></path>
</symbol>
</defs>
</svg>
